<?xml version="1.0" encoding="utf-8"?>
<!-- Generator: Adobe Illustrator 15.1.0, SVG Export Plug-In  -->
<!DOCTYPE svg PUBLIC "-//W3C//DTD SVG 1.1//EN" "http://www.w3.org/Graphics/SVG/1.1/DTD/svg11.dtd" [
	<!ENTITY ns_flows "http://ns.adobe.com/Flows/1.0/">
]>
<svg version="1.1"
	 xmlns="http://www.w3.org/2000/svg" xmlns:xlink="http://www.w3.org/1999/xlink" xmlns:a="http://ns.adobe.com/AdobeSVGViewerExtensions/3.0/"
	 x="0px" y="0px" width="238px" height="63px" viewBox="0 0 238 63" enable-background="new 0 0 238 63" xml:space="preserve">
<defs>
</defs>
<linearGradient id="SVGID_1_" gradientUnits="userSpaceOnUse" x1="190.5" y1="10.019" x2="190.5" y2="51.019">
	<stop  offset="0" style="stop-color:#F7D5DD"/>
	<stop  offset="1" style="stop-color:#E86F8F"/>
</linearGradient>
<rect x="188" y="10.019" fill="url(#SVGID_1_)" width="5" height="41"/>
<linearGradient id="SVGID_2_" gradientUnits="userSpaceOnUse" x1="221" y1="10.251" x2="221" y2="51.4235">
	<stop  offset="0" style="stop-color:#F7D5DD"/>
	<stop  offset="1" style="stop-color:#E86F8F"/>
</linearGradient>
<rect x="204" y="10.019" fill="url(#SVGID_2_)" width="34" height="41"/>
<polygon fill="#00993C" points="225.23,4.169 221.14,2.109 212.97,22.689 217.06,24.749 "/>
<polygon fill="#00993C" points="230.34,3.139 228.29,2.109 219.1,23.719 221.14,24.749 "/>
<linearGradient id="SVGID_3_" gradientUnits="userSpaceOnUse" x1="44.5" y1="10.019" x2="44.5" y2="51.019">
	<stop  offset="0" style="stop-color:#C9E2D2"/>
	<stop  offset="1" style="stop-color:#069B41"/>
</linearGradient>
<rect x="43" y="10.019" fill="url(#SVGID_3_)" width="3" height="41"/>
<linearGradient id="SVGID_4_" gradientUnits="userSpaceOnUse" x1="16" y1="10.019" x2="16" y2="51.019">
	<stop  offset="0" style="stop-color:#C9E2D2"/>
	<stop  offset="1" style="stop-color:#069B41"/>
</linearGradient>
<rect y="10.019" fill="url(#SVGID_4_)" width="32" height="41"/>
<polygon fill="#E86F8F" points="10.55,57.989 14.5,59.609 23.18,38.129 19.24,36.509 "/>
<polygon fill="#E86F8F" points="6.32,58.899 7.81,59.519 16.74,38.179 14.71,37.239 "/>
<path fill-rule="evenodd" clip-rule="evenodd" fill="#B41F1E" d="M41,61.019V2.399c0,0,3.88-1.1,6.5,2.27
	c2.37,3.07,1.72,9.93,2.04,12.35H52v-17H23v17h0.51c0.33-2.42,0.88-9.28,3.26-12.35c2.61-3.37,7.23-2.09,7.23-2.09v58.44h-3v2h13v-2
	H41z"/>
<path fill-rule="evenodd" clip-rule="evenodd" fill="#B41F1E" d="M202,61.019v-59h3v-2h-13v2h3v59h-3v2h25v-17h-2.14
	c0,0-0.7,9.23-3.95,12.07c-2.48,2.16-6.63,2.93-6.63,2.93H202z"/>
<path fill-rule="evenodd" clip-rule="evenodd" fill="#B41F1E" d="M78,15.019v-15H54v2h5v59h-5v2h3.76h7.1H78v-17h-2.28
	c0,0,0.4,10.11-1.65,12.17c-2.04,2.06-5.96,2.83-5.96,2.83H65v-29.27c0,0.01,4.28-0.58,5.99,1.72c2.16,2.9,1.38,7.55,1.38,7.55H74
	v-23h-2.14c0,0,2.07,6.33-0.14,9.18c-2.21,2.86-6.67,2.87-6.72,2.91V2.019h2.48c0,0,4.642-0.615,6.59,1.41
	c2.612,2.716,2.05,11.59,2.05,11.59H78z"/>
<path fill="#B41F1E" d="M147,43.503v19.339c0,0,1.4,0.404,1.91,0c0.51-0.403,0.21-3.229,1.63-3.229c2.76,0,5.49,3.229,9.77,3.229
	c5,0,9.75-5.593,9.75-13.185c0-7.996-5.32-15.312-10.22-23.308c-4.89-7.995-8.17-13.283-8.17-18.246c0-4.953,3.79-6.428,7.15-6.428
	c3.37,0,7.66,2.343,8.17,15.343H169V0.473L167.46,0c0,0,0.18,2.028-1.49,2.028c-1.72,0-2.35-2.028-7.15-2.028
	c-4.59,0-10.72,3.072-10.72,11.974c0,8.813,5.08,13.973,9.57,21.259c4.48,7.286,9.32,13.086,9.32,18.453
	c0,5.878-2.8,9.542-6.68,9.542c-3.98,0-7.69-1.763-9.77-6.45c-2.2-4.982-1.27-8.468-1.91-11.274
	C148.5,42.971,147.01,43.119,147,43.503z"/>
<path fill-rule="evenodd" clip-rule="evenodd" fill="#B41F1E" d="M132.74,2.019c0.96,0,7.7,0.05,7.7,14.23
	c0,14.17-4.96,15.5-8.81,15.5c-0.76,0-1.04,0.23-1.63,0V2.019H132.74z M130,33.199c0.84,0.28,2.09,0.18,3.26,0.18
	c6.37,0,12.29-5.53,12.29-16.5c0-10.87-6.88-16.86-11.29-16.86H121v2h3v59l-4.11,0.013c-1.05,0-1.22-1.503-1.22-1.503l-10.91-59.51
	h-1.02l-6.13,41.14l-8.17-41.14h-1.02l-9.28,61H79v2h13v-2h-2.77l5.25-41.41l7.2,43.41h1.63l6.49-41.17l6.54,37.53
	c-0.02-0.02,0.383,1.64-1,1.64H113v2h20v-2h-3V33.199z"/>
</svg>
